<svg xmlns="http://www.w3.org/2000/svg" id="Layer_1" viewBox="0 0 227 227"><defs><style>.cls-1{stroke-width:.5px;}.cls-1,.cls-2,.cls-3,.cls-4{stroke:#231f20;stroke-miterlimit:10;}.cls-1,.cls-5,.cls-6,.cls-7{fill:#231f20;}.cls-2{fill:#dcedd3;}.cls-2,.cls-3,.cls-4{stroke-width:2px;}.cls-3{fill:#f0dbeb;}.cls-4{fill:#f9ed90;}.cls-5{font-size:20px;}.cls-5,.cls-6{font-family:MyriadConceptRoman-BoldSemiCondensed, 'Myriad Variable Concept';font-variation-settings:'wght' 700, 'wdth' 90;font-weight:700;}.cls-6{font-size:23px;}</style></defs><circle class="cls-3" cx="113.5" cy="113.5" r="112.5"></circle><circle class="cls-2" cx="113.5" cy="113.5" r="75"></circle><text class="cls-6" transform="translate(29.32 121.21) rotate(-91.34)"><tspan x="0" y="0">S</tspan></text><text class="cls-6" transform="translate(29.03 110.37) rotate(-84.09)"><tspan x="0" y="0">a</tspan></text><text class="cls-6" transform="translate(30.02 99.9) rotate(-76.53)"><tspan x="0" y="0">h</tspan></text><text class="cls-6" transform="translate(32.72 88.52) rotate(-68.94)"><tspan x="0" y="0">e</tspan></text><text class="cls-6" transform="translate(36.48 78.63) rotate(-61.73)"><tspan x="0" y="0">e</tspan></text><text class="cls-6" transform="translate(41.37 69.32) rotate(-54.16)"><tspan x="0" y="0">d</tspan></text><text class="cls-6" transform="translate(48.67 59.51) rotate(-48.72)"><tspan x="0" y="0"> </tspan></text><text class="cls-6" transform="translate(51.19 56.39) rotate(-43.63)"><tspan x="0" y="0">S</tspan></text><text class="cls-6" transform="translate(58.33 49.04) rotate(-34.34)"><tspan x="0" y="0">m</tspan></text><text class="cls-6" transform="translate(72.91 39.44) rotate(-26.01)"><tspan x="0" y="0">r</tspan></text><text class="cls-6" transform="translate(80 36.02) rotate(-21.38)"><tspan x="0" y="0">i</tspan></text><text class="cls-6" transform="translate(85.31 33.89) rotate(-16.74)"><tspan x="0" y="0">t</tspan></text><text class="cls-6" transform="translate(92.78 31.67) rotate(-12.13)"><tspan x="0" y="0">i</tspan></text><text class="cls-6" transform="translate(98.6 30.45) rotate(-8.62)"><tspan x="0" y="0"> </tspan></text><text class="cls-6" transform="translate(102.08 29.45) rotate(-1.61)"><tspan x="0" y="0">M</tspan></text><text class="cls-6" transform="translate(118.84 29.1) rotate(7.79)"><tspan x="0" y="0">u</tspan></text><text class="cls-6" transform="translate(130.68 30.86) rotate(13.72)"><tspan x="0" y="0">l</tspan></text><text class="cls-6" transform="translate(136.27 32.17) rotate(18.36)"><tspan x="0" y="0">t</tspan></text><text class="cls-6" transform="translate(143.64 34.65) rotate(22.97)"><tspan x="0" y="0">i</tspan></text><text class="cls-6" transform="translate(148.73 36.59) rotate(28.97)"><tspan x="0" y="0">p</tspan></text><text class="cls-6" transform="translate(159.29 42.61) rotate(34.95)"><tspan x="0" y="0">l</tspan></text><text class="cls-6" transform="translate(163.9 45.64) rotate(40.49)"><tspan x="0" y="0">e</tspan></text><text class="cls-6" transform="translate(172.21 52.92) rotate(45.58)"><tspan x="0" y="0"> </tspan></text><text class="cls-6" transform="translate(175.12 55.6) rotate(50.92)"><tspan x="0" y="0">C</tspan></text><text class="cls-6" transform="translate(182.28 64.35) rotate(58.26)"><tspan x="0" y="0">a</tspan></text><text class="cls-6" transform="translate(187.97 72.82) rotate(67.6)"><tspan x="0" y="0">m</tspan></text><text class="cls-6" transform="translate(194.4 88.76) rotate(77.36)"><tspan x="0" y="0">p</tspan></text><text class="cls-6" transform="translate(197.03 100.2) rotate(85.26)"><tspan x="0" y="0">u</tspan></text><text class="cls-6" transform="translate(197.94 111.95) rotate(92.04)"><tspan x="0" y="0">s</tspan></text><text class="cls-5" transform="translate(25.22 158.31) rotate(59.82)"><tspan x="0" y="0">R</tspan></text><text class="cls-5" transform="translate(32.49 170.33) rotate(52.04)"><tspan x="0" y="0">a</tspan></text><text class="cls-5" transform="translate(39.99 179.65) rotate(45.98)"><tspan x="0" y="0">t</tspan></text><text class="cls-5" transform="translate(46.53 186.37) rotate(39.45)"><tspan x="0" y="0">n</tspan></text><text class="cls-5" transform="translate(57.21 194.89) rotate(31.85)"><tspan x="0" y="0">a</tspan></text><text class="cls-5" transform="translate(68.08 201.46) rotate(24.17)"><tspan x="0" y="0">n</tspan></text><text class="cls-5" transform="translate(80.67 206.87) rotate(16.48)"><tspan x="0" y="0">a</tspan></text><text class="cls-5" transform="translate(92.84 210.31) rotate(8.83)"><tspan x="0" y="0">g</tspan></text><text class="cls-5" transform="translate(106.29 212.19) rotate(1.28)"><tspan x="0" y="0">a</tspan></text><text class="cls-5" transform="translate(118.43 212.27) rotate(-4.85)"><tspan x="0" y="0">r</tspan></text><text class="cls-5" transform="translate(125.74 211.61) rotate(-8.51)"><tspan x="0" y="0">,</tspan></text><text class="cls-5" transform="translate(131.97 210.62) rotate(-11.81)"><tspan x="0" y="0"> </tspan></text><text class="cls-5" transform="translate(137.67 209.5) rotate(-17.21)"><tspan x="0" y="0">C</tspan></text><text class="cls-5" transform="translate(150.55 205.31) rotate(-25.18)"><tspan x="0" y="0">h</tspan></text><text class="cls-5" transform="translate(162.31 199.49) rotate(-31.13)"><tspan x="0" y="0">i</tspan></text><text class="cls-5" transform="translate(168.17 195.91) rotate(-35.63)"><tspan x="0" y="0">t</tspan></text><text class="cls-5" transform="translate(176.27 190.16) rotate(-43.46)"><tspan x="0" y="0">w</tspan></text><text class="cls-5" transform="translate(188.52 178.02) rotate(-52.14)"><tspan x="0" y="0">a</tspan></text><text class="cls-5" transform="translate(196.17 167.94) rotate(-59.75)"><tspan x="0" y="0">n</tspan></text><polygon class="cls-7" points="26.64 143.83 23.36 142.08 20.05 143.78 20.71 140.12 18.06 137.5 21.75 136.99 23.43 133.67 25.05 137.02 28.73 137.58 26.04 140.16 26.64 143.83"></polygon><polygon class="cls-7" points="208.06 143.83 204.77 142.08 201.46 143.78 202.12 140.12 199.48 137.5 203.17 136.99 204.84 133.67 206.46 137.02 210.14 137.58 207.46 140.16 208.06 143.83"></polygon><g><polygon class="cls-4" points="113.5 48.73 128.66 92.35 174.83 93.29 138.03 121.19 151.41 165.39 113.5 139.01 75.59 165.39 88.97 121.19 52.17 93.29 98.34 92.35 113.5 48.73"></polygon><g><g><path class="cls-1" d="m97.23,105.35v-2.05h-.92l-.61-.88h4.38v.88h-1.84v8.37l-1.01-1.02v-3.44c-.07.05-.17.1-.29.17-.12.06-.26.11-.41.15-.15.04-.31.06-.48.06h-.28c.02.17.04.3.04.39,0,.38-.13.75-.39,1.11-.37.54-.87.81-1.51.81s-1.2-.25-1.66-.76c-.15-.16-.26-.33-.34-.5-.08-.17-.19-.42-.32-.74-.09-.21-.16-.43-.23-.66-.07-.23-.12-.44-.16-.61l.26-.09c.04.14.08.25.12.35.04.1.09.2.14.31.17.42.27.66.3.72.03.06.11.16.23.29.22.25.43.43.64.55.2.12.44.18.73.18.38,0,.71-.12.99-.36s.41-.54.41-.91c0-.31-.1-.61-.31-.91s-.4-.48-.57-.54c-.21.12-.4.2-.56.24-.17.04-.36.06-.58.06l-.74-.99c.11,0,.35-.05.72-.14.37-.09.63-.17.77-.23.33-.16.58-.31.74-.44.22-.2.33-.42.33-.66,0-.44-.18-.74-.53-.9-.07-.04-.18-.06-.31-.06-.18,0-.34.01-.48.04-.14.03-.32.06-.54.12s-.4.11-.52.16c-.12.05-.33.17-.61.35l-.57-.83c.28-.18.56-.31.83-.39.27-.07.58-.11.94-.11.43,0,.8.06,1.11.19.31.13.58.35.83.65.15.17.26.33.33.47.07.14.11.3.11.49,0,.2-.04.42-.11.67-.07.25-.2.48-.38.7-.18.22-.35.37-.52.47.15.2.36.34.63.43.27.09.53.14.77.14.13,0,.22,0,.26-.02.42-.12.72-.28.91-.48.19-.19.29-.46.29-.79Z"></path><path class="cls-1" d="m103.51,106.78l.5-.53c.39.34.87.52,1.42.52.22,0,.41-.02.56-.06s.3-.12.45-.25c.32-.25.48-.54.48-.85v-2.27h-2.71c.22.48.33,1,.33,1.56s-.29,1.16-.87,1.82c-.45.53-.81.84-1.07.94,0,.24.04.44.11.62.02.05.09.17.18.35.05.09.12.18.21.29s.18.2.27.29l1.84,2.21-.22.25-2.03-2.28c-.61-.69-1.05-1.19-1.3-1.51-.25-.32-.41-.54-.47-.67s-.12-.25-.17-.38c-.05-.12-.07-.24-.07-.35,0-.04.01-.1.04-.2.09-.23.17-.38.27-.45.09-.07.23-.1.41-.1h1.18c.43-.28.64-.63.64-1.04,0-.38-.03-.65-.09-.82-.06-.17-.2-.34-.42-.51h-2.91v-.88h9.74v.88h-1.84v8.33l-1.07-1.01v-3.35c-.16.07-.31.14-.46.2-.15.06-.32.1-.51.12-.19.02-.33.03-.4.03-.18,0-.41-.03-.69-.09-.5-.11-.95-.37-1.35-.77Z"></path><path class="cls-1" d="m115.89,103.34h-6.06v-.88h8.97v.88h-1.84v8.33l-1.07-1.05v-4.61h-2.18c-.59,0-1,.02-1.24.06-.24.04-.47.21-.71.5s-.35.64-.35,1.04.15.81.44,1.2l2.01,2.56-.22.26-2.19-2.63c-.26-.32-.45-.62-.59-.9-.14-.28-.2-.58-.2-.9,0-.18.03-.39.09-.61.15-.48.41-.86.78-1.14.37-.28.81-.42,1.31-.42h3.05v-1.68Z"></path><path class="cls-1" d="m119.72,110.62v-7.28h-.92v-.88h3.81v.88h-1.82v8.33l-1.07-1.05Z"></path><path class="cls-1" d="m117.47,100.09c-.32-.07-.6-.11-.83-.11h-.23c-.07,0-.19.02-.38.07l-.52-1.24c.2,0,.39,0,.57,0,.18,0,.39.03.61.07.22.04.42.12.61.23.01.01.31.24.9.68.29.23.55.46.76.67.15.16.36.43.64.8.1.12.19.25.28.37.13.19.28.4.42.65h-.31c-.26-.41-.55-.77-.87-1.07-.41-.39-.66-.63-.76-.7-.26-.2-.56-.34-.9-.43Z"></path><path class="cls-1" d="m124.97,103.34h-2.36v-.88h9.37v.88h-1.84v8.33l-1.03-1.04v-2.85h-3.11v1.27c0,.27-.04.43-.11.47-.06.04-.16.04-.29,0-.13-.04-.22-.09-.29-.17l-1.55-1.97c-.12-.17-.19-.27-.2-.3-.05-.1-.06-.18-.04-.24.02-.07.08-.12.17-.14.09-.02.22-.03.38-.03h.88v-3.33Zm4.14,3.33v-3.33h-3.11v3.33h3.11Z"></path><path class="cls-1" d="m132.9,110.62v-7.28h-.92v-.88h3.81v.88h-1.82v8.33l-1.07-1.05Z"></path></g><g><path class="cls-1" d="m94.82,127.79l.5-.53c.39.34.87.52,1.42.52.22,0,.41-.02.56-.06s.3-.12.45-.25c.32-.25.48-.54.48-.85v-2.27h-2.71c.22.48.33,1,.33,1.56s-.29,1.16-.87,1.82c-.45.53-.81.84-1.07.94,0,.24.04.44.11.62.02.05.09.17.18.35.05.09.12.18.21.29s.18.2.27.29l1.84,2.21-.22.25-2.03-2.28c-.61-.69-1.05-1.19-1.3-1.51-.25-.32-.41-.54-.47-.67s-.12-.25-.17-.38c-.05-.12-.07-.24-.07-.35,0-.04.01-.1.04-.2.09-.23.17-.38.27-.45.09-.07.23-.1.41-.1h1.18c.43-.28.64-.63.64-1.04,0-.38-.03-.65-.09-.82-.06-.17-.2-.34-.42-.51h-2.91v-.88h9.74v.88h-1.84v8.33l-1.07-1.01v-3.35c-.16.07-.31.14-.46.2-.15.06-.32.1-.51.12-.19.02-.33.03-.4.03-.18,0-.41-.03-.69-.09-.5-.11-.95-.37-1.35-.77Z"></path><path class="cls-1" d="m105.78,124.35h-4.64v-.88h7.51v.88h-1.84v2.39h-2.3c-.29,0-.51.02-.64.05-.13.03-.3.11-.5.25-.26.18-.44.44-.55.77-.05.16-.07.32-.07.48,0,.06.02.19.05.38.03.19.09.36.17.51.09.15.22.29.41.42s.3.21.32.22c.12.06.26.09.41.09.33,0,.61-.06.85-.18-.11-.17-.17-.34-.17-.5,0-.05.01-.14.04-.26.09-.37.34-.58.77-.64.05-.01.12-.02.2-.02.29,0,.56.11.8.32.24.21.36.52.36.9,0,.12-.04.25-.11.37-.08.13-.14.23-.19.3-.08.15-.18.27-.3.37l1.14,1.71-.54.39-1.18-1.81c-.21.05-.43.07-.65.07-.17,0-.34-.02-.48-.05-.15-.03-.3-.08-.45-.16-.04-.02-.2-.12-.48-.29-.19-.12-.36-.26-.52-.42-.07-.09-.17-.2-.28-.34s-.2-.27-.28-.38c-.16-.23-.27-.44-.34-.64-.06-.19-.12-.37-.17-.55s-.07-.4-.07-.65c0-.48.18-.89.53-1.23.16-.15.32-.26.49-.34.17-.08.35-.12.56-.12h2.14v-1.42Z"></path><path class="cls-1" d="m108.27,134.05h-1.72l-.95-.92h2.23l2.63,2.65-.23.21-1.95-1.94Z"></path><path class="cls-1" d="m117.63,123.46v.88h-1.84v8.33l-1.07-1.01v-7.32h-2.63v5.19c0,.17-.02.3-.06.39-.04.09-.12.13-.25.13-.18,0-.34-.1-.48-.29l-1.44-1.93c-.12-.17-.2-.29-.24-.35-.07-.13-.09-.26-.04-.37.05-.12.17-.18.37-.18h1.18v-2.58h-2.47v-.88h8.97Z"></path><path class="cls-1" d="m119.98,124.35h-2.36v-.88h9.37v.88h-1.84v8.33l-1.03-1.04v-2.85h-3.11v1.27c0,.27-.04.43-.11.47-.06.04-.16.04-.29,0-.13-.04-.22-.09-.29-.17l-1.55-1.97c-.12-.17-.19-.27-.2-.3-.05-.1-.06-.18-.04-.24.02-.07.08-.12.17-.14.09-.02.22-.03.38-.03h.88v-3.33Zm4.14,3.33v-3.33h-3.11v3.33h3.11Z"></path><path class="cls-1" d="m128.88,124.35h-1.88v-.88h8.6v.88h-1.84v8.33l-1.07-1.01v-2.38c-.55.6-1.21.9-1.96.9-.18,0-.32,0-.42-.02-.1-.01-.24-.05-.44-.11-.51-.13-.94-.41-1.28-.83-.24-.29-.42-.58-.51-.87-.1-.28-.15-.63-.15-1.03.41,0,.76-.1,1.06-.3.3-.2.49-.49.58-.86.04-.17.06-.33.06-.48,0-.6-.25-1.05-.74-1.34Zm1.18,0c.16.21.28.45.36.73.08.28.12.55.12.82,0,.22-.01.38-.04.48-.07.39-.28.78-.63,1.15-.34.37-.76.62-1.23.73.2.64.63,1.05,1.29,1.23.22.05.37.07.46.07.41,0,.79-.14,1.14-.42s.64-.63.85-1.05c.21-.42.31-.86.31-1.33v-2.41h-2.63Z"></path></g></g></g><g><path class="cls-7" d="m54.14,137.53v-2.06l1.74-2.3c2.37-3.13,4.66-6.15,4.66-9.23,0-1.78-.88-2.94-2.54-2.94-1.27,0-2.2.61-2.79.99l-.61-2.38c.77-.56,2.25-1.22,3.97-1.22,3.69,0,5.04,2.57,5.04,5.34,0,3.55-2.27,6.66-4.52,9.49l-1.19,1.51v.06h6.01v2.74h-9.78Z"></path><path class="cls-7" d="m76.34,128.01c0,6.84-2.34,9.76-5.26,9.76-3.59,0-5.15-4.18-5.15-9.62,0-5.86,1.81-9.76,5.35-9.76,3.78,0,5.06,4.44,5.06,9.62Zm-7.29.07c-.03,4.49.62,7.03,2.17,7.03,1.44,0,2.01-2.6,2.01-7.03s-.53-7.03-2.02-7.03-2.17,2.57-2.15,7.03Z"></path></g><g><path class="cls-7" d="m150.49,134.45c.68.4,1.72.77,2.78.77,1.9,0,3.06-1.27,3.06-3.2,0-2.28-1.6-3.4-3.67-3.42h-.52v-2.29h.4c1.38-.02,3.28-.8,3.28-2.85,0-1.61-.92-2.5-2.33-2.5-.89,0-1.72.37-2.37.81l-.5-2.33c.74-.53,2.16-1.04,3.66-1.04,3.03,0,4.64,2.04,4.64,4.47,0,1.89-1.03,3.5-2.76,4.32v.06c1.77.56,3.28,2.14,3.28,4.88,0,2.97-2.11,5.65-5.92,5.65-1.4,0-2.74-.37-3.53-.85l.51-2.46Z"></path><path class="cls-7" d="m171.97,118.62v1.98l-6.03,16.93h-3.02l5.89-16.11v-.06h-6.61v-2.74h9.77Z"></path></g></svg>